<?xml version="1.0" encoding="UTF-8"?>
<svg id="svg1" xmlns="http://www.w3.org/2000/svg" version="1.1" xmlns:svg="http://www.w3.org/2000/svg" viewBox="0 0 797 90">
  <!-- Generator: Adobe Illustrator 30.2.1, SVG Export Plug-In . SVG Version: 2.1.1 Build 1)  -->
  <defs>
    <style>
      .st0 {
        fill: #fff;
      }

      .st1 {
        isolation: isolate;
      }

      .st2 {
        font-family: MyriadPro-Regular, 'Myriad Pro';
        font-size: 12px;
      }
    </style>
  </defs>
  <g id="layer1">
    <g id="text3" class="st1">
      <g class="st1">
        <path class="st0" d="M11.73,70.82h-.44V19.85h48.31c5.47,0,9.54,1.18,12.19,3.53,2.65,2.36,3.98,5.8,3.98,10.34v23.22c0,4.54-1.33,7.99-3.98,10.34-2.65,2.36-6.72,3.54-12.19,3.54H11.73ZM25.88,58.76h32.02c1.52,0,2.62-.27,3.32-.81.69-.54,1.04-1.24,1.04-2.11v-20.82c0-.86-.35-1.57-1.04-2.11-.69-.54-1.8-.81-3.32-.81H25.69v26.66h.19Z"/>
        <path class="st0" d="M81.2,32.82c0-2.08.23-3.79.69-5.16.46-1.36,1.33-2.63,2.59-3.79,1.09-1.12,2.31-1.99,3.66-2.59,1.35-.6,3.04-1.04,5.08-1.3,2.04-.26,4.49-.42,7.36-.49,2.86-.06,7.28-.1,13.26-.1s10.4.03,13.26.1c2.86.06,5.29.23,7.29.49,2,.26,3.66.69,4.99,1.3,1.33.61,2.54,1.47,3.63,2.59,1.26,1.17,2.13,2.43,2.59,3.79.46,1.36.69,3.08.69,5.16v24.84c0,2.08-.23,3.83-.69,5.25-.46,1.43-1.33,2.72-2.59,3.89-1.1,1.08-2.33,1.91-3.69,2.5-1.37.58-3.07,1.02-5.12,1.3-2.04.28-4.56.46-7.55.55-2.99.09-7.33.13-13.01.13s-10-.04-12.95-.13c-2.95-.09-5.45-.27-7.52-.55-2.06-.28-3.75-.71-5.05-1.3-1.31-.58-2.53-1.42-3.66-2.5-1.26-1.17-2.13-2.46-2.59-3.89-.46-1.43-.69-3.18-.69-5.25v-24.84ZM95.16,55.65c0,1.08.32,1.83.95,2.24.63.41,1.83.62,3.6.62h28.1c1.64,0,2.85-.27,3.63-.81.78-.54,1.17-1.22,1.17-2.04v-20.62c0-1.21-.33-2.03-.98-2.46-.65-.43-1.86-.65-3.63-.65h-28.29c-1.64,0-2.81.28-3.5.84-.69.56-1.04,1.32-1.04,2.27v20.62Z"/>
        <path class="st0" d="M202.08,58.5v12.32h-49.01V19.85h15.47v38.65h33.54Z"/>
        <path class="st0" d="M253.87,58.5v12.32h-49.01V19.85h15.47v38.65h33.54Z"/>
        <path class="st0" d="M272.56,70.82h-15.47V19.85h52.04v12.52h-36.57v9.4h34.61v11.8h-34.61v17.25Z"/>
        <path class="st0" d="M327,62.13l-4.61,8.69h-17.18l27.22-50.98h19.83l26.97,50.98h-17.18l-4.55-8.69h-30.5ZM332.62,51.17h19.2l-9.6-18.35-9.6,18.35Z"/>
        <path class="st0" d="M396.41,70.63h-14.59V19.85h25.26l29.81,37.81.25.65V19.85h14.59v50.78h-25.07l-30.06-38.07-.19-.45v38.52Z"/>
        <path class="st0" d="M491.39,70.82h-15.47V31.65h-21.79v-11.8h58.36v11.8h-21.09v39.17Z"/>
        <path class="st0" d="M522.34,62.13l-4.61,8.69h-17.18l27.22-50.98h19.83l26.97,50.98h-17.18l-4.55-8.69h-30.5ZM527.96,51.17h19.2l-9.6-18.35-9.6,18.35Z"/>
        <path class="st0" d="M639.62,55.19c0,5.49-1.19,9.47-3.57,11.93s-6.2,3.7-11.46,3.7h-44.84v-11.03h38.27c.88,0,1.7-.04,2.43-.13.74-.09,1.42-.27,2.05-.55.63-.28,1.14-.7,1.52-1.26.38-.56.57-1.3.57-2.21,0-1.04-.26-1.87-.79-2.5-.53-.63-1.21-1.08-2.05-1.36s-1.72-.46-2.62-.52-2.01-.1-3.32-.1c-.8-.04-3.05-.13-6.76-.26-5.81-.22-9.45-.36-10.93-.42-1.47-.06-2.86-.13-4.17-.19-1.31-.06-2.42-.14-3.35-.23-4.67-.26-8.02-1.84-10.04-4.73-1.43-2.16-2.15-5.38-2.15-9.66,0-5.27.99-9.23,2.97-11.87,1.98-2.64,5.26-3.96,9.85-3.96h46.54v11.03h-38.27c-.84,0-1.6.04-2.27.13-.67.09-1.31.27-1.89.55-.59.28-1.06.7-1.42,1.27-.36.56-.54,1.3-.54,2.21,0,1.64.57,2.72,1.71,3.24,1.14.52,2.72.78,4.74.78h2.59c.76.04,2.97.13,6.63.26,5.05.17,8.56.3,10.51.39,1.96.09,3.61.16,4.96.23,1.35.06,2.46.14,3.35.23,4.63.26,7.87,1.99,9.72,5.19,1.35,2.64,2.02,5.92,2.02,9.86Z"/>
        <path class="st0" d="M678.02,70.82h-15.47V31.65h-21.79v-11.8h58.36v11.8h-21.09v39.17Z"/>
        <path class="st0" d="M718.37,19.85v50.98h-15.47V19.85h15.47Z"/>
        <path class="st0" d="M739.53,19.85v50.98h-15.47V19.85h15.47ZM766.05,19.85h20.53l-28.36,24.58,32.02,26.4h-22.42l-28.29-26.4,26.52-24.58Z"/>
      </g>
    </g>
  </g>
  <text class="st2" transform="translate(546 303)"><tspan x="0" y="0">Lorem ipsum</tspan></text>
</svg>